<svg xmlns="http://www.w3.org/2000/svg" width="66" height="62" viewBox="0 0 66 62" fill="none"><path fill="#fff" d="M31.262 27.636h3.476v18.367h-3.476z"></path><ellipse cx="32.976" cy="22.078" rx="2.071" ry="2.075" fill="#fff"></ellipse><path fill="#fff" d="M27.738.73h10.429v3.482H27.738z"></path><path fill-rule="evenodd" clip-rule="evenodd" d="M41.643 29.568a9.552 9.552 0 0 1 6.119-2.219c5.31 0 9.547 4.294 9.547 9.59 0 5.295-4.285 9.588-9.57 9.588-5.287 0-9.572-4.293-9.572-9.589v-16.84h3.476v9.47zm0 7.37a6.123 6.123 0 0 0 6.119 6.13c3.38-.023 6.119-2.743 6.119-6.13a6.123 6.123 0 0 0-6.12-6.13 6.123 6.123 0 0 0-6.118 6.13zM24.286 29.568v-9.47h3.452v16.84a9.567 9.567 0 0 1-2.19 6.13c-3.357 4.08-9.405 4.628-13.477 1.265C8 40.969 7.43 34.91 10.81 30.832c3.357-4.079 9.404-4.651 13.476-1.264zm-12.238 7.37a6.123 6.123 0 0 0 6.119 6.13c3.38-.023 6.119-2.743 6.119-6.13a6.123 6.123 0 0 0-6.12-6.13 6.123 6.123 0 0 0-6.118 6.13z" fill="#fff"></path><path d="M66 42.472h-3.429v-1.765c0-16.291-13.31-29.553-29.571-29.553-16.262 0-29.571 13.262-29.571 29.553v1.765H0v-1.765c0-18.223 14.81-33.06 33-33.06 18.19 0 33 14.837 33 33.06v1.765zM2.785 61.27v-7.787H0V51.81h7.565v1.672H4.78v7.787H2.785z" fill="#fff"></path><path fill-rule="evenodd" clip-rule="evenodd" d="m20.172 61.17-.116-1.54-.28.07c-.257 0-.514-.095-.701-.26a2.265 2.265 0 0 1-.467-.593 6.844 6.844 0 0 0-.444-.687 1.837 1.837 0 0 0-.607-.521c1.238-.498 1.868-1.374 1.868-2.654 0-2.108-1.214-3.174-3.689-3.174h-3.128v9.382h1.984V57.97h.42c.35-.024.7.094.958.331.257.237.467.522.607.83.081.165.163.325.245.485.082.16.163.32.245.486.187.332.444.616.77.83.398.236.841.355 1.308.33.35.025.7-.023 1.027-.094zm-4.67-4.645h-.886v-3.15h1.027c.49-.048.98.118 1.377.402.327.308.49.735.467 1.185.024.45-.186.9-.537 1.16a2.4 2.4 0 0 1-1.447.403zM29.469 59.24l.64 2.03h2.04l-3.32-9.46h-2.183l-3.322 9.46h2.064l.664-2.03h3.417zm-.498-1.53h-2.42l.901-2.794c.119-.358.214-.74.285-1.099h.047c.072.358.167.717.285 1.075l.902 2.819z" fill="#fff"></path><path d="m37.423 51.81 2.002 6.339c.12.357.217.715.29 1.096h.047c.073-.31.17-.667.29-1.072l2.001-6.339h2.074l-3.303 9.436h-2.219l-3.303-9.436 2.121-.023zM54.843 53.483h-4.258v2.174h3.705v1.6h-3.705v2.34h4.258v1.673H48.54v-9.46h6.303v1.673zM61.286 59.598h4.274v1.672h-6.304v-9.46h2.03v7.788z" fill="#fff"></path></svg>